<svg width="1358" height="473" viewBox="0 0 1358 473" fill="none" xmlns="http://www.w3.org/2000/svg">
<rect x="0.5" y="0.5" width="59" height="59" stroke="#AE666A"/>
<rect x="0.5" y="59.5" width="59" height="59" stroke="#AE666A"/>
<rect x="59.5" y="0.5" width="59" height="59" stroke="#AE666A"/>
<rect x="59.5" y="59.5" width="59" height="59" stroke="#AE666A"/>
<rect x="118.5" y="118.5" width="59" height="59" stroke="#AE666A"/>
<rect x="118.5" y="177.5" width="59" height="59" stroke="#AE666A"/>
<rect x="177.5" y="118.5" width="59" height="59" stroke="#AE666A"/>
<rect x="177.5" y="177.5" width="59" height="59" stroke="#AE666A"/>
<rect x="118.5" y="0.5" width="59" height="59" stroke="#AE666A"/>
<rect x="118.5" y="59.5" width="59" height="59" stroke="#AE666A"/>
<rect x="177.5" y="0.5" width="59" height="59" stroke="#AE666A"/>
<rect x="177.5" y="59.5" width="59" height="59" stroke="#AE666A"/>
<rect x="0.5" y="118.5" width="59" height="59" stroke="#AE666A"/>
<rect x="0.5" y="177.5" width="59" height="59" stroke="#AE666A"/>
<rect x="59.5" y="118.5" width="59" height="59" stroke="#AE666A"/>
<rect x="59.5" y="177.5" width="59" height="59" stroke="#AE666A"/>
<rect x="236.5" y="0.5" width="59" height="59" stroke="#AE666A"/>
<rect x="236.5" y="59.5" width="59" height="59" stroke="#AE666A"/>
<rect x="295.5" y="0.5" width="59" height="59" stroke="#AE666A"/>
<rect x="295.5" y="59.5" width="59" height="59" stroke="#AE666A"/>
<rect x="354.5" y="118.5" width="59" height="59" stroke="#AE666A"/>
<rect x="354.5" y="177.5" width="59" height="59" stroke="#AE666A"/>
<rect x="413.5" y="118.5" width="59" height="59" stroke="#AE666A"/>
<rect x="413.5" y="177.5" width="59" height="59" stroke="#AE666A"/>
<rect x="354.5" y="0.5" width="59" height="59" stroke="#AE666A"/>
<rect x="354.5" y="59.5" width="59" height="59" stroke="#AE666A"/>
<rect x="413.5" y="0.5" width="59" height="59" stroke="#AE666A"/>
<rect x="413.5" y="59.5" width="59" height="59" stroke="#AE666A"/>
<rect x="236.5" y="118.5" width="59" height="59" stroke="#AE666A"/>
<rect x="236.5" y="177.5" width="59" height="59" stroke="#AE666A"/>
<rect x="295.5" y="118.5" width="59" height="59" stroke="#AE666A"/>
<rect x="295.5" y="177.5" width="59" height="59" stroke="#AE666A"/>
<rect x="0.5" y="236.5" width="59" height="59" stroke="#AE666A"/>
<rect x="0.5" y="295.5" width="59" height="59" stroke="#AE666A"/>
<rect x="59.5" y="236.5" width="59" height="59" stroke="#AE666A"/>
<rect x="59.5" y="295.5" width="59" height="59" stroke="#AE666A"/>
<rect x="118.5" y="354.5" width="59" height="59" stroke="#AE666A"/>
<rect x="118.5" y="413.5" width="59" height="59" stroke="#AE666A"/>
<rect x="177.5" y="354.5" width="59" height="59" stroke="#AE666A"/>
<rect x="177.5" y="413.5" width="59" height="59" stroke="#AE666A"/>
<rect x="118.5" y="236.5" width="59" height="59" stroke="#AE666A"/>
<rect x="118.5" y="295.5" width="59" height="59" stroke="#AE666A"/>
<rect x="177.5" y="236.5" width="59" height="59" stroke="#AE666A"/>
<rect x="177.5" y="295.5" width="59" height="59" stroke="#AE666A"/>
<rect x="0.5" y="354.5" width="59" height="59" stroke="#AE666A"/>
<rect x="0.5" y="413.5" width="59" height="59" stroke="#AE666A"/>
<rect x="59.5" y="354.5" width="59" height="59" stroke="#AE666A"/>
<rect x="59.5" y="413.5" width="59" height="59" stroke="#AE666A"/>
<rect x="236.5" y="236.5" width="59" height="59" stroke="#AE666A"/>
<rect x="236.5" y="295.5" width="59" height="59" stroke="#AE666A"/>
<rect x="295.5" y="236.5" width="59" height="59" stroke="#AE666A"/>
<rect x="295.5" y="295.5" width="59" height="59" stroke="#AE666A"/>
<rect x="354.5" y="354.5" width="59" height="59" stroke="#AE666A"/>
<rect x="354.5" y="413.5" width="59" height="59" stroke="#AE666A"/>
<rect x="413.5" y="354.5" width="59" height="59" stroke="#AE666A"/>
<rect x="413.5" y="413.5" width="59" height="59" stroke="#AE666A"/>
<rect x="354.5" y="236.5" width="59" height="59" stroke="#AE666A"/>
<rect x="354.5" y="295.5" width="59" height="59" stroke="#AE666A"/>
<rect x="413.5" y="236.5" width="59" height="59" stroke="#AE666A"/>
<rect x="413.5" y="295.5" width="59" height="59" stroke="#AE666A"/>
<rect x="236.5" y="354.5" width="59" height="59" stroke="#AE666A"/>
<rect x="236.5" y="413.5" width="59" height="59" stroke="#AE666A"/>
<rect x="295.5" y="354.5" width="59" height="59" stroke="#AE666A"/>
<rect x="295.5" y="413.5" width="59" height="59" stroke="#AE666A"/>
<rect x="472.5" y="0.5" width="59" height="59" stroke="#AE666A"/>
<rect x="472.5" y="59.5" width="59" height="59" stroke="#AE666A"/>
<rect x="531.5" y="0.5" width="59" height="59" stroke="#AE666A"/>
<rect x="531.5" y="59.5" width="59" height="59" stroke="#AE666A"/>
<rect x="590.5" y="118.5" width="59" height="59" stroke="#AE666A"/>
<rect x="590.5" y="177.5" width="59" height="59" stroke="#AE666A"/>
<rect x="649.5" y="118.5" width="59" height="59" stroke="#AE666A"/>
<rect x="649.5" y="177.5" width="59" height="59" stroke="#AE666A"/>
<rect x="590.5" y="0.5" width="59" height="59" stroke="#AE666A"/>
<rect x="590.5" y="59.5" width="59" height="59" stroke="#AE666A"/>
<rect x="649.5" y="0.5" width="59" height="59" stroke="#AE666A"/>
<rect x="649.5" y="59.5" width="59" height="59" stroke="#AE666A"/>
<rect x="472.5" y="118.5" width="59" height="59" stroke="#AE666A"/>
<rect x="472.5" y="177.5" width="59" height="59" stroke="#AE666A"/>
<rect x="531.5" y="118.5" width="59" height="59" stroke="#AE666A"/>
<rect x="531.5" y="177.5" width="59" height="59" stroke="#AE666A"/>
<rect x="708.5" y="0.5" width="59" height="59" stroke="#AE666A"/>
<rect x="708.5" y="59.5" width="59" height="59" stroke="#AE666A"/>
<rect x="767.5" y="0.5" width="59" height="59" stroke="#AE666A"/>
<rect x="767.5" y="59.5" width="59" height="59" stroke="#AE666A"/>
<rect x="826.5" y="118.5" width="59" height="59" stroke="#AE666A"/>
<rect x="826.5" y="177.5" width="59" height="59" stroke="#AE666A"/>
<rect x="885.5" y="118.5" width="59" height="59" stroke="#AE666A"/>
<rect x="885.5" y="177.5" width="59" height="59" stroke="#AE666A"/>
<rect x="826.5" y="0.5" width="59" height="59" stroke="#AE666A"/>
<rect x="826.5" y="59.5" width="59" height="59" stroke="#AE666A"/>
<rect x="885.5" y="0.5" width="59" height="59" stroke="#AE666A"/>
<rect x="885.5" y="59.5" width="59" height="59" stroke="#AE666A"/>
<rect x="708.5" y="118.5" width="59" height="59" stroke="#AE666A"/>
<rect x="708.5" y="177.5" width="59" height="59" stroke="#AE666A"/>
<rect x="767.5" y="118.5" width="59" height="59" stroke="#AE666A"/>
<rect x="767.5" y="177.5" width="59" height="59" stroke="#AE666A"/>
<rect x="472.5" y="236.5" width="59" height="59" stroke="#AE666A"/>
<rect x="472.5" y="295.5" width="59" height="59" stroke="#AE666A"/>
<rect x="531.5" y="236.5" width="59" height="59" stroke="#AE666A"/>
<rect x="531.5" y="295.5" width="59" height="59" stroke="#AE666A"/>
<rect x="590.5" y="354.5" width="59" height="59" stroke="#AE666A"/>
<rect x="590.5" y="413.5" width="59" height="59" stroke="#AE666A"/>
<rect x="649.5" y="354.5" width="59" height="59" stroke="#AE666A"/>
<rect x="649.5" y="413.5" width="59" height="59" stroke="#AE666A"/>
<rect x="590.5" y="236.5" width="59" height="59" stroke="#AE666A"/>
<rect x="590.5" y="295.5" width="59" height="59" stroke="#AE666A"/>
<rect x="649.5" y="236.5" width="59" height="59" stroke="#AE666A"/>
<rect x="649.5" y="295.5" width="59" height="59" stroke="#AE666A"/>
<rect x="472.5" y="354.5" width="59" height="59" stroke="#AE666A"/>
<rect x="472.5" y="413.5" width="59" height="59" stroke="#AE666A"/>
<rect x="531.5" y="354.5" width="59" height="59" stroke="#AE666A"/>
<rect x="531.5" y="413.5" width="59" height="59" stroke="#AE666A"/>
<rect x="708.5" y="236.5" width="59" height="59" stroke="#AE666A"/>
<rect x="708.5" y="295.5" width="59" height="59" stroke="#AE666A"/>
<rect x="767.5" y="236.5" width="59" height="59" stroke="#AE666A"/>
<rect x="767.5" y="295.5" width="59" height="59" stroke="#AE666A"/>
<rect x="826.5" y="354.5" width="59" height="59" stroke="#AE666A"/>
<rect x="826.5" y="413.5" width="59" height="59" stroke="#AE666A"/>
<rect x="885.5" y="354.5" width="59" height="59" stroke="#AE666A"/>
<rect x="885.5" y="413.5" width="59" height="59" stroke="#AE666A"/>
<rect x="826.5" y="236.5" width="59" height="59" stroke="#AE666A"/>
<rect x="826.5" y="295.5" width="59" height="59" stroke="#AE666A"/>
<rect x="885.5" y="236.5" width="59" height="59" stroke="#AE666A"/>
<rect x="885.5" y="295.5" width="59" height="59" stroke="#AE666A"/>
<rect x="708.5" y="354.5" width="59" height="59" stroke="#AE666A"/>
<rect x="708.5" y="413.5" width="59" height="59" stroke="#AE666A"/>
<rect x="767.5" y="354.5" width="59" height="59" stroke="#AE666A"/>
<rect x="767.5" y="413.5" width="59" height="59" stroke="#AE666A"/>
<rect x="944.5" y="0.5" width="59" height="59" stroke="#AE666A"/>
<rect x="944.5" y="59.5" width="59" height="59" stroke="#AE666A"/>
<rect x="1003.5" y="0.5" width="59" height="59" stroke="#AE666A"/>
<rect x="1003.5" y="59.5" width="59" height="59" stroke="#AE666A"/>
<rect x="1062.5" y="118.5" width="59" height="59" stroke="#AE666A"/>
<rect x="1062.5" y="177.5" width="59" height="59" stroke="#AE666A"/>
<rect x="1121.5" y="118.5" width="59" height="59" stroke="#AE666A"/>
<rect x="1121.5" y="177.5" width="59" height="59" stroke="#AE666A"/>
<rect x="1062.5" y="0.5" width="59" height="59" stroke="#AE666A"/>
<rect x="1062.5" y="59.5" width="59" height="59" stroke="#AE666A"/>
<rect x="1121.5" y="0.5" width="59" height="59" stroke="#AE666A"/>
<rect x="1121.5" y="59.5" width="59" height="59" stroke="#AE666A"/>
<rect x="944.5" y="118.5" width="59" height="59" stroke="#AE666A"/>
<rect x="944.5" y="177.5" width="59" height="59" stroke="#AE666A"/>
<rect x="1003.5" y="118.5" width="59" height="59" stroke="#AE666A"/>
<rect x="1003.5" y="177.5" width="59" height="59" stroke="#AE666A"/>
<rect x="1180.5" y="0.5" width="59" height="59" stroke="#AE666A"/>
<rect x="1180.5" y="59.5" width="59" height="59" stroke="#AE666A"/>
<rect x="1239.5" y="0.5" width="59" height="59" stroke="#AE666A"/>
<rect x="1239.5" y="59.5" width="59" height="59" stroke="#AE666A"/>
<rect x="1298.5" y="118.5" width="59" height="59" stroke="#AE666A"/>
<rect x="1298.5" y="177.5" width="59" height="59" stroke="#AE666A"/>
<rect x="1298.5" y="0.5" width="59" height="59" stroke="#AE666A"/>
<rect x="1298.5" y="59.5" width="59" height="59" stroke="#AE666A"/>
<rect x="1180.5" y="118.5" width="59" height="59" stroke="#AE666A"/>
<rect x="1180.5" y="177.5" width="59" height="59" stroke="#AE666A"/>
<rect x="1239.5" y="118.5" width="59" height="59" stroke="#AE666A"/>
<rect x="1239.5" y="177.5" width="59" height="59" stroke="#AE666A"/>
<rect x="944.5" y="236.5" width="59" height="59" stroke="#AE666A"/>
<rect x="944.5" y="295.5" width="59" height="59" stroke="#AE666A"/>
<rect x="1003.5" y="236.5" width="59" height="59" stroke="#AE666A"/>
<rect x="1003.5" y="295.5" width="59" height="59" stroke="#AE666A"/>
<rect x="1062.5" y="354.5" width="59" height="59" stroke="#AE666A"/>
<rect x="1062.5" y="413.5" width="59" height="59" stroke="#AE666A"/>
<rect x="1121.5" y="354.5" width="59" height="59" stroke="#AE666A"/>
<rect x="1121.5" y="413.5" width="59" height="59" stroke="#AE666A"/>
<rect x="1062.5" y="236.5" width="59" height="59" stroke="#AE666A"/>
<rect x="1062.5" y="295.5" width="59" height="59" stroke="#AE666A"/>
<rect x="1121.5" y="236.5" width="59" height="59" stroke="#AE666A"/>
<rect x="1121.5" y="295.5" width="59" height="59" stroke="#AE666A"/>
<rect x="944.5" y="354.5" width="59" height="59" stroke="#AE666A"/>
<rect x="944.5" y="413.5" width="59" height="59" stroke="#AE666A"/>
<rect x="1003.5" y="354.5" width="59" height="59" stroke="#AE666A"/>
<rect x="1003.5" y="413.5" width="59" height="59" stroke="#AE666A"/>
<rect x="1180.5" y="236.5" width="59" height="59" stroke="#AE666A"/>
<rect x="1180.5" y="295.5" width="59" height="59" stroke="#AE666A"/>
<rect x="1239.5" y="236.5" width="59" height="59" stroke="#AE666A"/>
<rect x="1239.5" y="295.5" width="59" height="59" stroke="#AE666A"/>
<rect x="1298.5" y="354.5" width="59" height="59" stroke="#AE666A"/>
<rect x="1298.5" y="413.5" width="59" height="59" stroke="#AE666A"/>
<rect x="1298.5" y="236.5" width="59" height="59" stroke="#AE666A"/>
<rect x="1298.5" y="295.5" width="59" height="59" stroke="#AE666A"/>
<rect x="1180.5" y="354.5" width="59" height="59" stroke="#AE666A"/>
<rect x="1180.5" y="413.5" width="59" height="59" stroke="#AE666A"/>
<rect x="1239.5" y="354.5" width="59" height="59" stroke="#AE666A"/>
<rect x="1239.5" y="413.5" width="59" height="59" stroke="#AE666A"/>
</svg>
