<svg width="38" height="38" viewBox="0 0 38 38" fill="none" xmlns="http://www.w3.org/2000/svg">
<path d="M13.6008 21.3908L24.415 27.6925M24.3992 10.3075L13.6008 16.6092M33.25 7.91667C33.25 10.54 31.1234 12.6667 28.5 12.6667C25.8766 12.6667 23.75 10.54 23.75 7.91667C23.75 5.29332 25.8766 3.16667 28.5 3.16667C31.1234 3.16667 33.25 5.29332 33.25 7.91667ZM14.25 19C14.25 21.6234 12.1234 23.75 9.5 23.75C6.87665 23.75 4.75 21.6234 4.75 19C4.75 16.3766 6.87665 14.25 9.5 14.25C12.1234 14.25 14.25 16.3766 14.25 19ZM33.25 30.0833C33.25 32.7067 31.1234 34.8333 28.5 34.8333C25.8766 34.8333 23.75 32.7067 23.75 30.0833C23.75 27.46 25.8766 25.3333 28.5 25.3333C31.1234 25.3333 33.25 27.46 33.25 30.0833Z" stroke="#1E1E1E" stroke-width="3.5" stroke-linecap="round" stroke-linejoin="round"/>
</svg>
